<svg width="36" height="36" viewBox="0 0 36 36" fill="none" xmlns="http://www.w3.org/2000/svg">
<path fill-rule="evenodd" clip-rule="evenodd" d="M19.9286 31.6111L22.0176 28.125L30.375 28.125C30.375 28.125 31.307 28.125 31.966 27.466C31.966 27.466 32.625 26.807 32.625 25.875V7.875C32.625 7.875 32.625 6.94302 31.966 6.28401C31.966 6.28401 31.307 5.625 30.375 5.625H5.625C5.625 5.625 4.69302 5.625 4.03401 6.28401C4.03401 6.28401 3.375 6.94302 3.375 7.875V25.875C3.375 25.875 3.375 26.807 4.03401 27.466C4.03401 27.466 4.69302 28.125 5.625 28.125H13.9825L16.0647 31.6001C16.0647 31.6001 16.3803 32.1136 16.8952 32.4015C16.8952 32.4015 17.4101 32.6893 18 32.6893C18 32.6893 18.5899 32.6893 19.1048 32.4015C19.1048 32.4015 19.6197 32.1136 19.9286 31.6111ZM20.0865 26.9702C20.0865 26.9702 20.3864 26.4643 20.8972 26.1714C20.8972 26.1714 21.4123 25.8759 22.006 25.875L30.375 25.875V7.875H5.625V25.875H13.9922C13.9922 25.875 14.5877 25.8759 15.1028 26.1714C15.1028 26.1714 15.6179 26.4668 15.9186 26.9788L17.9944 30.4431L17.992 30.4373L17.9931 30.4375C17.9931 30.4375 17.9963 30.4393 18 30.4393L18.0025 30.439L18.0069 30.4375C18.0069 30.4375 18.0101 30.4357 18.012 30.4326L20.0844 26.9738L20.0865 26.9702Z" fill="#EF9B1C"/>
<path d="M23.6504 19.8666C23.4203 20.0501 22.7859 20.1287 22.5315 19.9818C21.711 19.5016 22.1894 18.4709 21.3193 17.924C20.3034 17.2844 18.4749 19.2346 19.2716 20.2521C19.8609 21.0071 20.374 20.6952 20.9957 20.9961C21.6625 21.3183 21.6363 21.9456 21.273 22.502L18.0412 26.0766C17.6815 25.8347 17.3143 25.5958 16.9618 25.3433C16.4238 24.9576 14.9744 23.9488 14.6945 23.4438C14.5093 23.1091 14.5058 22.557 14.7156 22.2265C15.2586 21.3731 16.8402 21.8939 17.1006 20.533C17.2938 19.522 15.38 17.866 14.4572 18.6852C13.6721 19.3833 13.91 19.6756 13.6352 20.4673C13.3773 21.2111 12.7721 21.4108 12.0989 21.0585C11.5797 20.7869 10.8938 19.9616 10.4829 19.5012C10.1944 19.1777 9.92027 18.8357 9.64272 18.5028L12.7228 15.0779C13.0095 14.7706 13.6973 14.7255 14.0232 14.9467C14.589 15.3333 14.4231 16.0361 14.7282 16.5396C14.9775 16.9516 15.4539 17.1991 15.9362 17.0562C16.5524 16.8761 17.4258 15.8788 17.4331 15.2222C17.4359 14.875 17.123 14.4859 16.8505 14.3008C16.2444 13.89 15.2734 14.1484 14.9752 13.3645C14.8981 13.1588 14.9612 12.5965 15.0989 12.4438L17.6938 9.56735C18.0224 9.97071 18.3503 10.3855 18.7022 10.7685C19.115 11.2162 19.7957 12.0075 20.3426 12.2192C20.8137 12.4012 21.2055 12.3005 21.5138 11.8766C21.8221 11.4528 21.7146 10.8652 21.9575 10.4212C22.0842 10.1907 22.4653 9.75235 22.6917 9.6311C23.6751 9.10218 25.7961 10.9256 24.9529 12.0668C24.3118 12.9337 23.4843 12.5564 22.9017 13.1335C22.5253 13.5057 22.5239 14.2088 22.8127 14.6272C23.1015 15.0456 24.3474 15.9411 24.831 16.2997C25.2388 16.5995 25.6769 16.8709 26.0977 17.151L23.6478 19.8667L23.6504 19.8666Z" fill="white"/>
</svg>
