<svg width="72" height="72" viewBox="0 0 72 72" fill="none" xmlns="http://www.w3.org/2000/svg">
<rect width="72" height="72" fill="#1275F0"/>
<path d="M52.0307 44.605C51.3393 45.1567 49.4321 45.3929 48.6676 44.9514C46.2013 43.5079 47.6393 40.4099 45.0237 38.7659C41.9701 36.8435 36.4739 42.7054 38.8688 45.7638C40.6401 48.0334 42.1823 47.0957 44.051 48.0002C46.0555 48.9689 45.9768 50.8545 44.8846 52.5268L35.1702 63.2715C34.089 62.5444 32.9854 61.8263 31.9256 61.0675C30.3085 59.908 25.9518 56.8759 25.1106 55.3576C24.5538 54.3516 24.5434 52.6922 25.174 51.6987C26.8061 49.1335 31.56 50.6988 32.3429 46.6083C32.9237 43.5694 27.171 38.5916 24.3971 41.0539C22.0374 43.1525 22.7523 44.031 21.9263 46.4107C21.1512 48.6465 19.332 49.2468 17.3084 48.1879C15.7478 47.3715 13.6859 44.8908 12.451 43.5067C11.5837 42.5345 10.7597 41.5064 9.92541 40.5056L19.1836 30.2108C20.0455 29.2872 22.113 29.1517 23.0925 29.8164C24.7935 30.9784 24.2946 33.0911 25.2118 34.6047C25.9611 35.8429 27.393 36.587 28.843 36.1574C30.6951 35.616 33.3205 32.6182 33.3422 30.6446C33.3507 29.6009 32.4102 28.4313 31.5913 27.875C29.7693 26.6403 26.8506 27.4169 25.9543 25.0606C25.7224 24.4424 25.9122 22.752 26.3262 22.2931L34.1259 13.6468C35.1139 14.8592 36.0994 16.1061 37.157 17.2572C38.3979 18.603 40.444 20.9818 42.0881 21.618C43.5039 22.1651 44.6816 21.8622 45.6084 20.5882C46.5351 19.3143 46.2119 17.5479 46.942 16.2134C47.3231 15.5205 48.4686 14.2029 49.1491 13.8384C52.1051 12.2486 58.4805 17.7297 55.9459 21.1599C54.0189 23.7656 51.5317 22.6316 49.7802 24.3663C48.649 25.485 48.6447 27.5984 49.5129 28.8561C50.381 30.1138 54.1258 32.8057 55.5796 33.8836C56.8053 34.7848 58.1223 35.6005 59.3872 36.4423L52.0232 44.6055L52.0307 44.605Z" fill="#EF9B1C"/>
</svg>
